<?xml version="1.0" encoding="UTF-8" standalone="no"?>
<!-- Created with Inkscape (http://www.inkscape.org/) -->

<svg
   xmlns:dc="http://purl.org/dc/elements/1.1/"
   xmlns:cc="http://creativecommons.org/ns#"
   xmlns:rdf="http://www.w3.org/1999/02/22-rdf-syntax-ns#"
   xmlns:svg="http://www.w3.org/2000/svg"
   xmlns="http://www.w3.org/2000/svg"
   xmlns:xlink="http://www.w3.org/1999/xlink"
   xmlns:sodipodi="http://sodipodi.sourceforge.net/DTD/sodipodi-0.dtd"
   xmlns:inkscape="http://www.inkscape.org/namespaces/inkscape"
   width="297mm"
   height="210mm"
   id="svg3819"
   version="1.1"
   inkscape:version="0.48.2 r9819"
   inkscape:export-filename="C:\Users\Chris\Desktop\Client Work\Superior Chevy\CRO comparison\compare.png"
   inkscape:export-xdpi="200"
   inkscape:export-ydpi="200"
   sodipodi:docname="arrows.svg">
  <sodipodi:namedview
     inkscape:document-units="mm"
     pagecolor="#ffffff"
     bordercolor="#666666"
     borderopacity="1.0"
     inkscape:pageopacity="0.0"
     inkscape:pageshadow="2"
     inkscape:zoom="0.86831673"
     inkscape:cx="117.9736"
     inkscape:cy="378.96623"
     inkscape:current-layer="layer1"
     id="namedview3823"
     showgrid="false"
     inkscape:window-width="1920"
     inkscape:window-height="1058"
     inkscape:window-x="-8"
     inkscape:window-y="-8"
     inkscape:window-maximized="1" />
  <defs
     id="defs3821">
    <clipPath
       id="clipPath4502"
       clipPathUnits="userSpaceOnUse">
      <rect
         y="1850.7853"
         x="-936.49329"
         height="135.99512"
         width="399.02759"
         id="rect4504"
         style="fill:#a9ae33;fill-opacity:1;stroke:none" />
    </clipPath>
    <linearGradient
       inkscape:collect="always"
       xlink:href="#linearGradient4760-1"
       id="linearGradient4766-2"
       x1="-1559.9147"
       y1="98.016861"
       x2="-1518.4552"
       y2="144.08301"
       gradientUnits="userSpaceOnUse" />
    <linearGradient
       inkscape:collect="always"
       id="linearGradient4760-1">
      <stop
         style="stop-color:#214478;stop-opacity:1"
         offset="0"
         id="stop4762-9" />
      <stop
         style="stop-color:#3771c8;stop-opacity:1"
         offset="1"
         id="stop4764-8" />
    </linearGradient>
    <linearGradient
       inkscape:collect="always"
       xlink:href="#linearGradient4760-4"
       id="linearGradient4766-3"
       x1="-1559.9147"
       y1="98.016861"
       x2="-1518.4552"
       y2="144.08301"
       gradientUnits="userSpaceOnUse" />
    <linearGradient
       inkscape:collect="always"
       id="linearGradient4760-4">
      <stop
         style="stop-color:#214478;stop-opacity:1"
         offset="0"
         id="stop4762-0" />
      <stop
         style="stop-color:#3771c8;stop-opacity:1"
         offset="1"
         id="stop4764-2" />
    </linearGradient>
    <clipPath
       clipPathUnits="userSpaceOnUse"
       id="clipPath6167">
      <rect
         y="36.338512"
         x="-2403.6729"
         height="174.02945"
         width="159.27176"
         id="rect6169"
         style="fill:#ffffff;fill-opacity:1;stroke:none" />
    </clipPath>
    <clipPath
       clipPathUnits="userSpaceOnUse"
       id="clipPath6333">
      <rect
         style="fill:#ffffff;fill-opacity:1;stroke:none"
         id="rect6335"
         width="134.36642"
         height="166.94011"
         x="-2367.2922"
         y="-177.74068" />
    </clipPath>
  </defs>
  <metadata
     id="metadata3825">
    <rdf:RDF>
      <cc:Work
         rdf:about="">
        <dc:format>image/svg+xml</dc:format>
        <dc:type
           rdf:resource="http://purl.org/dc/dcmitype/StillImage" />
        <dc:title></dc:title>
      </cc:Work>
    </rdf:RDF>
  </metadata>
  <g
     id="layer1"
     inkscape:groupmode="layer"
     inkscape:label="Layer 1">
    <rect
       y="-923.81458"
       x="13.029472"
       height="741.66486"
       width="1053.7629"
       id="rect4417"
       style="fill:#ffffff;fill-opacity:1;stroke:none" />
    <path
       inkscape:export-ydpi="83.939156"
       inkscape:export-xdpi="83.939156"
       inkscape:export-filename="C:\Users\Chris\Pictures\Arrows\curved-arrow.png"
       sodipodi:nodetypes="ccccscsssssssc"
       inkscape:connector-curvature="0"
       id="path4476"
       d="m 157.27016,390.32576 c 68.3863,30.79192 -64.9343,102.8492 -58.7504,83.31432 39.1769,-16.69696 94.235,-50.18771 53.4572,-81.27847 m -43.9618,51.61974 c -0.013,0.6875 -6.5767,9.72354 -14.5866,20.08008 -8.0099,10.35655 -14.3601,19.03343 -14.1116,19.28196 0.2485,0.24853 11.2482,-1.58751 24.4436,-4.08008 24.7956,-4.68382 32.0195,-5.39013 34.0777,-3.33196 1.9134,1.91335 1.3938,4.76384 -1.05,5.76055 -1.2375,0.50472 -15.8676,3.20819 -32.5113,6.00772 -30.5337,5.13589 -33.2677,5.27792 -34.5164,1.79319 -0.7439,-2.07587 0.8457,-4.35972 18.1046,-26.01146 10.6132,-13.31453 17.191,-20.75 18.3566,-20.75 0.9991,0 1.8061,0.5625 1.7934,1.25 z"
       style="fill:#000000;fill-opacity:1" />
    <g
       transform="translate(31.970617,131.13047)"
       id="g4557-4-9" />
    <path
       inkscape:export-ydpi="62.326244"
       inkscape:export-xdpi="62.326244"
       inkscape:export-filename="C:\Users\Chris\Pictures\Arrows\straight-arrowarrow.png"
       sodipodi:nodetypes="ccccscsssssssc"
       inkscape:connector-curvature="0"
       id="path4476-5"
       d="m 194.50527,271.81572 c -35.04074,20.95025 -127.79756,19.81966 -111.569819,7.30917 41.698559,8.65147 63.758449,2.04219 108.519019,-9.66649 m -83.7937,-9.2666 c -0.40309,0.55709 -10.950155,4.23018 -23.438414,8.16207 -12.488266,3.9319 -22.655025,7.43195 -22.592837,7.77785 0.06219,0.3459 10.142049,5.11674 22.39954,10.60176 23.033171,10.30694 29.367881,13.85024 29.883121,16.71499 0.47899,2.66319 -1.57466,4.70716 -4.15017,4.13069 C 108.4578,307.28724 94.901903,301.1565 79.637798,293.95531 51.635025,280.74437 49.30906,279.30048 50.272765,275.72642 c 0.574046,-2.1291 3.182848,-3.09707 29.712565,-11.02434 16.314199,-4.87479 25.95927,-7.2256 26.91634,-6.5603 0.82037,0.57027 1.16193,1.49276 0.7591,2.05002 z"
       style="fill:#000000;fill-opacity:1" />
    <path
       inkscape:export-ydpi="57.544228"
       inkscape:export-xdpi="57.544228"
       inkscape:export-filename="C:\Users\Chris\Pictures\Arrows\bent-arrow-png.png"
       sodipodi:nodetypes="csssscsccccscsssssssc"
       inkscape:connector-curvature="0"
       id="path4476-5-6"
       d="m 197.39426,156.35856 c -4.3801,2.61878 -20.38178,-6.33493 -32.23992,2.11472 -11.85813,8.44966 -19.57271,26.30268 -26.2577,27.62501 -13.37,2.64466 -13.74256,-29.92353 -26.51297,-29.53737 -12.77042,0.38616 -25.938691,3.72668 -32.900129,2.18874 -6.961437,-1.53793 -9.716037,-3.95431 -5.659101,-7.08193 10.42464,2.16287 31.62186,-0.62806 40.25322,-0.21402 8.63136,0.41405 16.69685,30.03306 24.85804,29.01583 10.76327,-4.11112 15.84536,-24.10919 25.43216,-26.8017 8.61173,-3.88446 23.03067,-3.25252 29.9756,0.3334 m -95.7937,-17.2666 c -0.40309,0.55709 -10.95016,4.23018 -23.43842,8.16207 -12.488263,3.9319 -22.655022,7.43195 -22.592834,7.77785 0.06219,0.3459 10.142049,5.11674 22.399544,10.60176 23.03317,10.30694 29.36788,13.85024 29.88312,16.71499 0.47899,2.66319 -1.57466,4.70716 -4.15017,4.13069 -1.30421,-0.29192 -14.86011,-6.42266 -30.12421,-13.62385 -28.002777,-13.21094 -30.328742,-14.65483 -29.365037,-18.22889 0.574046,-2.1291 3.182848,-3.09707 29.712567,-11.02434 16.3142,-4.87479 25.95927,-7.2256 26.91634,-6.5603 0.82037,0.57027 1.16193,1.49276 0.7591,2.05002 z"
       style="fill:#000000;fill-opacity:1" />
    <path
       style="fill:#1a1a1a;fill-opacity:1;stroke:none"
       d="m 460.46265,92.356983 0,19.873847 120,9.93692 0,9.93692 0,9.93692 -120,9.93692 0,19.87385 -34.42251,-19.87384 -34.42251,-19.87385 34.42251,-19.87384 z"
       id="path4152"
       inkscape:connector-curvature="0"
       sodipodi:nodetypes="ccccccccccc"
       inkscape:transform-center-x="11.47417" />
    <path
       style="fill:#1a1a1a;fill-opacity:1;stroke:none"
       d="m 679.91326,130.09102 0,19.87385 c 40.47224,-3.82394 80.85309,-10.13383 -0.76572,-31.96828 0,27.58347 0,-14.8112 0,-20.126157 121.42206,-0.18726 143.49809,93.542817 0.76572,91.842117 l 0,19.87385 -34.42251,-19.87384 -34.42251,-19.87385 34.42251,-19.87384 z"
       id="path4152-4"
       inkscape:connector-curvature="0"
       sodipodi:nodetypes="cccccccccc"
       inkscape:transform-center-x="11.474172" />
  </g>
</svg>
